HIERARCHY
ROOT Hips
{
	OFFSET 0.000000 0.000000 0.000000
	CHANNELS 6 Xposition Yposition Zposition Zrotation Yrotation Xrotation 
	JOINT LHipJoint
	{
		OFFSET 0.000000 0.000000 0.000000
		CHANNELS 3 Zrotation Yrotation Xrotation
		JOINT LeftUpLeg
		{
			OFFSET 1.363060 -1.794630 0.839290
			CHANNELS 3 Zrotation Yrotation Xrotation
			JOINT LeftLeg
			{
				OFFSET 2.448110 -6.726130 0.000000
				CHANNELS 3 Zrotation Yrotation Xrotation
				JOINT LeftFoot
				{
					OFFSET 2.562200 -7.039590 0.000000
					CHANNELS 3 Zrotation Yrotation Xrotation
					JOINT LeftToeBase
					{
						OFFSET 0.157640 -0.433110 2.322550
						CHANNELS 3 Zrotation Yrotation Xrotation
						End Site
						{
							OFFSET 0.000000 0.000000 0.000000
						}
					}
				}
			}
		}
	}
	JOINT RHipJoint
	{
		OFFSET 0.000000 0.000000 0.000000
		CHANNELS 3 Zrotation Yrotation Xrotation
		JOINT RightUpLeg
		{
			OFFSET -1.305520 -1.794630 0.839290
			CHANNELS 3 Zrotation Yrotation Xrotation
			JOINT RightLeg
			{
				OFFSET -2.542530 -6.985550 0.000000
				CHANNELS 3 Zrotation Yrotation Xrotation
				JOINT RightFoot
				{
					OFFSET -2.568260 -7.056230 0.000000
					CHANNELS 3 Zrotation Yrotation Xrotation
					JOINT RightToeBase
					{
						OFFSET -0.164730 -0.452590 2.363150
						CHANNELS 3 Zrotation Yrotation Xrotation
						End Site
						{
							OFFSET 0.000000 0.000000 0.000000
						}
					}
				}
			}
		}
	}
	JOINT LowerBack
	{
		OFFSET 0.000000 0.000000 0.000000
		CHANNELS 3 Zrotation Yrotation Xrotation
		JOINT Spine
		{
			OFFSET 0.028270 2.035590 -0.193380
			CHANNELS 3 Zrotation Yrotation Xrotation
			JOINT Spine1
			{
				OFFSET 0.056720 2.048850 -0.042750
				CHANNELS 3 Zrotation Yrotation Xrotation
				JOINT Neck
				{
					OFFSET 0.000000 0.000000 0.000000
					CHANNELS 3 Zrotation Yrotation Xrotation
					JOINT Neck1
					{
						OFFSET -0.054170 1.746240 0.172020
						CHANNELS 3 Zrotation Yrotation Xrotation
						JOINT Head
						{
							OFFSET 0.104070 1.761360 -0.123970
							CHANNELS 3 Zrotation Yrotation Xrotation
							End Site
							{
								OFFSET 0.000000 0.000000 0.000000
							}
						}
					}
				}
				JOINT LeftShoulder
				{
					OFFSET 0.000000 0.000000 0.000000
					CHANNELS 3 Zrotation Yrotation Xrotation
					JOINT LeftArm
					{
						OFFSET 3.362410 1.200890 -0.311210
						CHANNELS 3 Zrotation Yrotation Xrotation
						JOINT LeftForeArm
						{
							OFFSET 4.983000 -0.000000 -0.000000
							CHANNELS 3 Zrotation Yrotation Xrotation
							JOINT LeftHand
							{
								OFFSET 3.483560 -0.000000 -0.000000
								CHANNELS 3 Zrotation Yrotation Xrotation
								JOINT LeftFingerBase
								{
									OFFSET 0.000000 0.000000 0.000000
									CHANNELS 3 Zrotation Yrotation Xrotation
									JOINT LeftHandIndex1
									{
										OFFSET 0.715260 -0.000000 -0.000000
										CHANNELS 3 Zrotation Yrotation Xrotation
										End Site
										{
											OFFSET 0.000000 0.000000 0.000000
										}
									}
								}
								JOINT LThumb
								{
									OFFSET 0.000000 0.000000 0.000000
									CHANNELS 3 Zrotation Yrotation Xrotation
									End Site
									{
										OFFSET 0.000000 0.000000 0.000000
									}
								}
							}
						}
					}
				}
				JOINT RightShoulder
				{
					OFFSET 0.000000 0.000000 0.000000
					CHANNELS 3 Zrotation Yrotation Xrotation
					JOINT RightArm
					{
						OFFSET -3.136600 1.374050 -0.404650
						CHANNELS 3 Zrotation Yrotation Xrotation
						JOINT RightForeArm
						{
							OFFSET -5.241900 -0.000000 -0.000000
							CHANNELS 3 Zrotation Yrotation Xrotation
							JOINT RightHand
							{
								OFFSET -3.444170 -0.000000 -0.000000
								CHANNELS 3 Zrotation Yrotation Xrotation
								JOINT RightFingerBase
								{
									OFFSET 0.000000 0.000000 0.000000
									CHANNELS 3 Zrotation Yrotation Xrotation
									JOINT RightHandIndex1
									{
										OFFSET -0.622530 -0.000000 -0.000000
										CHANNELS 3 Zrotation Yrotation Xrotation
										End Site
										{
											OFFSET 0.000000 0.000000 0.000000
										}
									}
								}
								JOINT RThumb
								{
									OFFSET 0.000000 0.000000 0.000000
									CHANNELS 3 Zrotation Yrotation Xrotation
									End Site
									{
										OFFSET 0.000000 0.000000 0.000000
									}
								}
							}
						}
					}
				}
			}
		}
	}
}
MOTION
Frames: 5
Frame Time: 0.008333
25.337962 16.110445 4.466374 149.523574 -89.778607 -124.084225 -14.057998 3.595515 -1.550021 0.954260 8.612298 0.233751 -0.705205 1.074204 17.020599 1.368273 9.162921 9.328551 2.298600 0.000000 -83.381300 6.667105 1.088733 3.160233 3.506219 8.738462 -61.332892 1.218887 -2.225500 35.765812 -0.974706 -3.862749 0.086772 -1.323999 -0.000000 -39.061100 11.853615 -3.970156 0.354956 1.388666 -4.725908 -2.816398 -8.062172 -4.799049 0.947942 11.612237 -5.203128 -5.119868 -4.527954 -0.349864 0.537669 0.000000 0.000000 0.000000 -2.077891 -0.661396 3.337494 -34.425910 -13.969699 9.730963 -1.727699 -67.552179 0.022476 -3.873858 -1.893149 0.072218 -0.087992 0.247945 -0.000000 0.000000 0.000000 0.000000 0.000000 0.000000 0.000000 21.306279 -6.299011 1.658645 56.021622 -4.919366 -9.881227 4.020659 18.021049 0.020204 2.072144 11.245584 0.196270 0.092257 -0.041901 0.000000 0.000000 0.000000 0.000000 0.000000 0.000000 0.000000 
25.123442 16.135168 4.413048 146.820378 -89.870629 -121.397917 -14.292344 3.529965 -1.534212 1.446387 8.735956 -0.731742 -0.516891 1.223654 19.346637 1.501766 9.654922 11.420931 2.675700 0.000001 -81.270800 6.481178 0.946547 3.054056 4.072824 8.916996 -60.827458 1.209148 -2.270181 36.785160 -1.030660 -3.922598 -0.992540 -1.225000 -0.000000 -38.795100 12.030761 -4.098277 0.411485 1.428487 -4.860655 -2.822171 -8.073277 -4.937542 0.927124 11.654829 -4.971838 -5.094976 -4.597431 -0.354482 0.542594 0.000000 0.000000 0.000000 -1.854227 -0.669454 3.339836 -35.571470 -12.200127 9.974833 -1.794329 -66.988785 0.022118 -4.005675 -1.868200 0.073325 -0.090395 0.233889 -0.000000 0.000000 0.000000 0.000000 0.000000 0.000000 0.000000 21.622152 -6.163477 1.630564 55.802277 -3.729788 -9.552506 4.019840 17.962024 0.020339 2.207561 11.416622 0.212977 0.090818 -0.042942 0.000000 0.000000 0.000000 0.000000 0.000000 0.000000 0.000000 
24.910953 16.162485 4.358069 144.790488 -89.961103 -119.409526 -14.479414 3.438706 -1.527581 1.866375 8.893487 -1.808458 -0.350329 1.356668 21.846388 1.650868 10.223432 13.261896 3.066500 0.000000 -77.936600 6.335292 0.810261 2.942083 4.670463 9.009133 -60.196585 1.229541 -2.305164 37.627753 -1.065141 -3.855942 -2.151218 -1.092100 0.000000 -38.617500 12.159528 -4.222871 0.479216 1.455895 -4.988896 -2.823848 -8.085834 -5.068937 0.909592 11.718131 -4.737744 -5.060610 -4.663966 -0.358970 0.550383 0.000000 0.000000 0.000000 -1.602196 -0.678668 3.340175 -36.706531 -10.435703 10.293696 -1.863640 -66.315986 0.021773 -4.187973 -1.838064 0.075024 -0.091878 0.219021 -0.000000 0.000000 0.000000 0.000000 0.000000 0.000000 0.000000 21.954479 -6.022409 1.599378 55.614016 -2.506972 -9.171980 4.019129 18.000753 0.020475 2.391176 11.575134 0.234885 0.089277 -0.044201 0.000000 0.000000 0.000000 0.000000 0.000000 0.000000 0.000000 
24.700789 16.192338 4.301979 -36.790874 -89.963474 62.110621 -14.624983 3.324585 -1.529699 2.196259 9.074995 -2.992244 -0.211221 1.476413 24.491763 1.807812 10.880148 14.760824 3.468700 0.000000 -73.592800 6.223036 0.677384 2.826404 5.286388 9.014732 -59.455032 1.275980 -2.330485 38.290625 -1.078801 -3.676967 -3.329463 -0.940200 -0.000000 -38.514900 12.231727 -4.338016 0.555472 1.469016 -5.104561 -2.822238 -8.098773 -5.187254 0.893841 11.797113 -4.531508 -5.019366 -4.726600 -0.363290 0.560445 0.000000 0.000000 0.000000 -1.331849 -0.730390 3.336467 -37.820706 -8.638231 10.675108 -1.932351 -65.563186 0.021413 -4.435533 -1.799224 0.077412 -0.092122 0.203157 -0.000000 0.000000 0.000000 0.000000 0.000000 0.000000 0.000000 22.297613 -5.906013 1.569822 55.447709 -1.229170 -8.661271 4.018700 18.132831 0.020647 2.592349 11.730448 0.258994 0.087795 -0.045758 0.000000 0.000000 0.000000 0.000000 0.000000 0.000000 0.000000 
24.493303 16.224818 4.245319 -38.106837 -89.913206 63.350873 -14.733669 3.191738 -1.540888 2.420292 9.268675 -4.274934 -0.100786 1.588132 27.244762 1.965126 11.630633 15.858996 3.878201 0.000000 -68.610300 6.139084 0.545418 2.709310 5.904998 8.936427 -58.618105 1.343900 -2.346280 38.772333 -1.073223 -3.403788 -4.473046 -0.783600 0.000000 -38.474100 12.246365 -4.438732 0.638257 1.467544 -5.202801 -2.816861 -8.112736 -5.287499 0.882666 11.885873 -4.318709 -4.970867 -4.785034 -0.367373 0.572553 0.000000 0.000000 0.000000 -1.076026 -0.767068 3.336409 -38.866267 -6.922593 11.167458 -2.005373 -64.693251 0.021005 -4.739147 -1.753987 0.080198 -0.091917 0.186590 0.000000 0.000000 0.000000 0.000000 0.000000 0.000000 0.000000 22.643682 -5.770833 1.539635 55.312555 0.038864 -8.071745 4.016991 18.405261 0.020817 2.832769 11.871074 0.287404 0.086161 -0.047596 0.000000 0.000000 0.000000 0.000000 0.000000 0.000000 0.000000 
